<svg width="33" height="15" viewBox="0 0 33 15" fill="none" xmlns="http://www.w3.org/2000/svg">
<path id="ApplePay" fill-rule="evenodd" clip-rule="evenodd" d="M6.50643 2.04236C6.12872 2.5081 5.52438 2.87545 4.92005 2.82298C4.8445 2.19323 5.14038 1.52413 5.48661 1.11086C5.86432 0.631998 6.52532 0.290888 7.06041 0.264648C7.12336 0.92063 6.87785 1.56349 6.50643 2.04236ZM7.05396 2.94775C6.52155 2.91582 6.03575 3.1146 5.64335 3.27516C5.39084 3.37848 5.177 3.46598 5.01432 3.46598C4.83176 3.46598 4.6091 3.3738 4.3591 3.27031C4.03152 3.13471 3.657 2.97967 3.26426 2.98711C2.36405 3.00023 1.52679 3.53158 1.06724 4.37779C0.122958 6.07022 0.821725 8.57607 1.73453 9.95363C2.18149 10.6358 2.71658 11.3837 3.42164 11.3574C3.73182 11.3452 3.95495 11.2466 4.18587 11.1445C4.45172 11.0269 4.72789 10.9048 5.15911 10.9048C5.57538 10.9048 5.83948 11.0237 6.09299 11.1379C6.33404 11.2465 6.56553 11.3507 6.90917 11.3443C7.63942 11.3312 8.09897 10.6621 8.54592 9.97987C9.02826 9.24766 9.24023 8.53307 9.2724 8.42462L9.27617 8.41207C9.2754 8.41127 9.26944 8.40843 9.25892 8.40341C9.09768 8.32649 7.86527 7.73858 7.85345 6.16206C7.84159 4.8388 8.83097 4.16835 8.98671 4.06281C8.99619 4.05639 9.00258 4.05206 9.00547 4.0498C8.37595 3.07895 7.3939 2.97399 7.05396 2.94775ZM12.1094 11.2721V1.04532H15.7921C17.6932 1.04532 19.0215 2.40976 19.0215 4.40394C19.0215 6.39813 17.668 7.77569 15.7417 7.77569H13.6328V11.2721H12.1094ZM13.6326 2.38339H15.389C16.7109 2.38339 17.4664 3.11809 17.4664 4.41037C17.4664 5.70266 16.7109 6.44391 15.3827 6.44391H13.6326V2.38339ZM24.0513 10.0453C23.6484 10.8456 22.7608 11.3507 21.8039 11.3507C20.3875 11.3507 19.3991 10.4717 19.3991 9.14658C19.3991 7.83462 20.356 7.08024 22.1249 6.96873L24.0261 6.85065V6.28651C24.0261 5.45341 23.5036 5.00079 22.5719 5.00079C21.8039 5.00079 21.2436 5.41405 21.1303 6.04379H19.758C19.802 4.71871 20.9981 3.75442 22.616 3.75442C24.3597 3.75442 25.4929 4.70559 25.4929 6.18155V11.272H24.0827V10.0453H24.0513ZM22.2125 10.1371C21.4004 10.1371 20.8842 9.73036 20.8842 9.10718C20.8842 8.46432 21.3815 8.09041 22.3321 8.03137L24.0255 7.91986V8.49712C24.0255 9.45485 23.2449 10.1371 22.2125 10.1371ZM30.1702 11.6723C29.5596 13.4631 28.8608 14.0535 27.3751 14.0535C27.2618 14.0535 26.8841 14.0404 26.796 14.0141V12.7874C26.8904 12.8006 27.1233 12.8137 27.2429 12.8137C27.9165 12.8137 28.2942 12.5185 28.5272 11.751L28.6657 11.2984L26.0846 3.85298H27.6773L29.4714 9.89456H29.5029L31.2971 3.85298H32.8457L30.1702 11.6723Z" fill="white"/>
</svg>
