<svg width="41" height="20" viewBox="0 0 41 20" fill="none" xmlns="http://www.w3.org/2000/svg">
<g id="Discover">
<path id="Stripe" d="M15.5293 19.6762L40.6764 12.0659V15.7056C40.6764 17.8985 38.8987 19.6762 36.7058 19.6762H15.5293Z" fill="#FD6020"/>
<path id="DISC-VER" fill-rule="evenodd" clip-rule="evenodd" d="M35.9033 1.05832C37.2868 1.05832 38.0477 1.6983 38.0477 2.90716C38.1169 3.83158 37.4943 4.61378 36.6642 4.756L38.5319 7.38704H37.0793L35.4883 4.82711H35.3499V7.38704H34.174V1.05832H35.9033ZM35.3502 3.97394H35.696C36.457 3.97394 36.8028 3.61839 36.8028 2.97841C36.8028 2.40954 36.457 2.05399 35.696 2.05399H35.3502V3.97394ZM30.0929 7.38704H33.4132V6.3204H31.2688V4.61378H33.344V3.54714H31.2688V2.12496H33.4132V1.05832H30.0929V7.38704ZM26.6345 5.32487L25.0435 1.05832H23.7984L26.3578 7.52926H26.9804L29.5398 1.05832H28.2947L26.6345 5.32487ZM12.5917 4.25825C12.5917 6.03598 13.9751 7.52927 15.7045 7.52927C16.2579 7.52927 16.7421 7.38705 17.2263 7.17372V5.75154C16.8804 6.17819 16.3962 6.46263 15.8428 6.46263C14.736 6.46263 13.8368 5.60932 13.8368 4.47157V4.32936C13.7676 3.19161 14.6669 2.19608 15.7737 2.12497C16.327 2.12497 16.8804 2.40941 17.2263 2.83606V1.41388C16.8113 1.12944 16.2579 1.05833 15.7737 1.05833C13.9751 0.916115 12.5917 2.40941 12.5917 4.25825ZM10.4476 3.47604C9.75583 3.19161 9.54831 3.04939 9.54831 2.69384C9.61749 2.26719 9.96336 1.91164 10.3784 1.98275C10.7243 1.98275 11.0701 2.19608 11.3468 2.48052L11.9694 1.6272C11.4852 1.20055 10.8626 0.916113 10.2401 0.916113C9.27162 0.845004 8.44153 1.6272 8.37236 2.62273V2.69384C8.37236 3.54715 8.71823 4.04492 9.82501 4.40046C10.1017 4.47157 10.3784 4.61379 10.6551 4.75601C10.8626 4.89823 11.001 5.11156 11.001 5.39599C11.001 5.89376 10.5859 6.32041 10.1709 6.32041H10.1017C9.54831 6.32041 9.06409 5.96487 8.85657 5.4671L8.09566 6.2493C8.5107 7.03151 9.34079 7.45816 10.1709 7.45816C11.2777 7.52927 12.1769 6.67596 12.2461 5.53821V5.32488C12.1769 4.47157 11.831 4.04492 10.4476 3.47604ZM6.43543 7.38704H7.61139V1.05832H6.43543V7.38704ZM0.970703 1.05832H2.70005H3.04592C4.70609 1.12943 6.0204 2.55161 5.95122 4.25824C5.95122 5.18266 5.53618 6.03597 4.84444 6.67595C4.22188 7.17371 3.46096 7.45815 2.70005 7.38704H0.970703V1.05832ZM2.49264 6.32058C3.04603 6.39169 3.6686 6.17836 4.08364 5.82281C4.49868 5.39616 4.70621 4.82728 4.70621 4.1873C4.70621 3.61843 4.49868 3.04955 4.08364 2.6229C3.6686 2.26735 3.04603 2.05402 2.49264 2.12513H2.14677V6.32058H2.49264Z" fill="white"/>
<path id="O" fill-rule="evenodd" clip-rule="evenodd" d="M20.7543 0.911621C19.0249 0.911621 17.5723 2.33381 17.5723 4.18264C17.5723 5.96037 18.9557 7.45367 20.7543 7.52478C22.5528 7.59589 23.9363 6.10259 24.0054 4.25375C23.9363 2.40491 22.5528 0.911621 20.7543 0.911621V0.911621Z" fill="#FD6020"/>
</g>
</svg>
