<svg width="31" height="19" viewBox="0 0 31 19" fill="none" xmlns="http://www.w3.org/2000/svg">
<g id="Mastercard">
<path id="Left" fill-rule="evenodd" clip-rule="evenodd" d="M21.5579 18.3925C26.5143 18.3925 30.5323 14.4223 30.5323 9.52487C30.5323 4.62741 26.5143 0.657227 21.5579 0.657227C19.3367 0.657227 17.3039 1.45459 15.7368 2.77543C14.1697 1.45463 12.137 0.657306 9.91585 0.657306C4.9594 0.657306 0.941406 4.62749 0.941406 9.52495C0.941406 14.4224 4.9594 18.3926 9.91585 18.3926C12.1371 18.3926 14.1698 17.5952 15.7369 16.2744C17.304 17.5952 19.3367 18.3925 21.5579 18.3925Z" fill="#ED0006"/>
<path id="Right" fill-rule="evenodd" clip-rule="evenodd" d="M15.7373 16.274C17.6668 14.6475 18.8903 12.2274 18.8903 9.52487C18.8903 6.82238 17.6668 4.40225 15.7373 2.77576C17.3045 1.45472 19.3374 0.657227 21.5588 0.657227C26.5152 0.657227 30.5332 4.62741 30.5332 9.52487C30.5332 14.4223 26.5152 18.3925 21.5588 18.3925C19.3374 18.3925 17.3045 17.595 15.7373 16.274Z" fill="#F9A000"/>
<path id="Middle" fill-rule="evenodd" clip-rule="evenodd" d="M15.7368 16.2742C17.6665 14.6477 18.8901 12.2274 18.8901 9.52478C18.8901 6.82213 17.6665 4.40188 15.7368 2.77539C13.8071 4.40188 12.5835 6.82213 12.5835 9.52478C12.5835 12.2274 13.8071 14.6477 15.7368 16.2742Z" fill="#FF5E00"/>
</g>
</svg>
