<svg width="32" height="12" viewBox="0 0 32 12" fill="none" xmlns="http://www.w3.org/2000/svg">
<path id="visa-logo" fill-rule="evenodd" clip-rule="evenodd" d="M8.22787 10.9889H5.50174L3.45748 2.96049C3.36045 2.59119 3.15443 2.2647 2.85138 2.11082C2.09508 1.72412 1.26169 1.41637 0.352539 1.26115V0.952062H4.74412C5.35022 0.952062 5.80479 1.41637 5.88056 1.95561L6.94123 7.74673L9.66603 0.952062H12.3164L8.22787 10.9889ZM13.8314 10.9889H11.2568L13.3768 0.952062H15.9514L13.8314 10.9889ZM19.2823 3.73268C19.3581 3.1921 19.8127 2.88301 20.343 2.88301C21.1764 2.8054 22.0842 2.96062 22.8419 3.34598L23.2964 1.18501C22.5388 0.875918 21.7054 0.720703 20.9491 0.720703C18.4503 0.720703 16.632 2.11095 16.632 4.04043C16.632 5.50828 17.9199 6.27901 18.8291 6.74331C19.8127 7.20628 20.1915 7.51537 20.1157 7.97834C20.1157 8.6728 19.3581 8.98189 18.6018 8.98189C17.6927 8.98189 16.7835 8.7504 15.9514 8.3637L15.4969 10.526C16.406 10.9114 17.3896 11.0666 18.2988 11.0666C21.1006 11.1429 22.8419 9.75395 22.8419 7.66925C22.8419 5.04398 19.2823 4.8901 19.2823 3.73268ZM31.8528 10.9889L29.8085 0.952062H27.6127C27.1582 0.952062 26.7036 1.26115 26.5521 1.72412L22.7666 10.9889H25.417L25.946 9.52234H29.2024L29.5055 10.9889H31.8528ZM27.991 3.65502L28.7473 7.43772H26.6273L27.991 3.65502Z" fill="white"/>
</svg>
